<svg width="18" height="18" viewBox="0 0 14 15" fill="none" xmlns="http://www.w3.org/2000/svg">
    <path fill-rule="evenodd" clip-rule="evenodd" d="M9.50122 4.5625C9.50122 6.11553 8.24174 7.37503 6.68872 7.37503C5.13568 7.37503 3.87622 6.11553 3.87622 4.5625V3.9375C3.87622 2.38447 5.13568 1.125 6.68872 1.125C8.24174 1.125 9.50122 2.38447 9.50122 3.9375V4.5625ZM3.25121 4.5625C3.25121 6.46071 4.79051 8 6.68872 8C8.58689 8 10.1262 6.46071 10.1262 4.5625V3.9375C10.1262 2.03929 8.58689 0.5 6.68872 0.5C4.79051 0.5 3.25121 2.03929 3.25121 3.9375V4.5625ZM13.2502 14.5625V13.255C13.2502 11.9872 12.406 10.8757 11.1861 10.5435C9.66172 10.1274 8.12677 9.875 6.68774 9.875C5.2487 9.875 3.71374 10.1274 2.1892 10.5436C0.969474 10.8757 0.125244 11.9872 0.125244 13.255V14.5625C0.125244 14.7351 0.265149 14.875 0.437739 14.875H12.9377C13.1103 14.875 13.2502 14.7351 13.2502 14.5625ZM11.0217 11.1465C11.969 11.4045 12.6253 12.2684 12.6253 13.255V14.25H0.750242V13.255C0.750242 12.2684 1.40644 11.4045 2.3536 11.1466C3.829 10.7438 5.31167 10.5 6.68774 10.5C8.06377 10.5 9.54652 10.7438 11.0217 11.1465Z" fill="#6F8B90"/>
</svg>
