<svg width="26" height="34" viewBox="0 0 26 34" fill="none" xmlns="http://www.w3.org/2000/svg">
    <path fill-rule="evenodd" clip-rule="evenodd" d="M5.36262 0.947379C5.4615 0.584829 5.7908 0.333313 6.16659 0.333313H17.8333C18.0948 0.333313 18.3411 0.456063 18.4986 0.664813C18.6561 0.87358 18.7064 1.14415 18.6346 1.39558L15.6048 12H24.4999C24.8233 12 25.1174 12.187 25.2546 12.4798C25.3918 12.7727 25.3471 13.1184 25.1401 13.3668L8.47344 33.3668C8.22464 33.6653 7.80249 33.7523 7.45595 33.5763C7.10944 33.4003 6.93055 33.0083 7.0248 32.6311L10.0993 20.3333H1.16659C0.906869 20.3333 0.661986 20.2121 0.504336 20.0058C0.346686 19.7995 0.294286 19.5313 0.36262 19.2806L5.36262 0.947379ZM6.80309 1.99998L2.25764 18.6666H11.1666C11.4233 18.6666 11.6656 18.7848 11.8234 18.9871C11.9814 19.1895 12.0373 19.4531 11.9751 19.7021L9.52525 29.5011L22.7208 13.6666H14.4999C14.2384 13.6666 13.9921 13.5439 13.8346 13.3351C13.6771 13.1264 13.6268 12.8558 13.6986 12.6044L16.7284 1.99998H6.80309Z" fill="#6F8B90"/>
</svg>
