<svg width="34" height="34" viewBox="0 0 34 34" fill="none" xmlns="http://www.w3.org/2000/svg">
    <path fill-rule="evenodd" clip-rule="evenodd" d="M3.97753 3.07676C2.49251 3.81926 1.89128 4.69084 1.89128 5.40578C1.89128 6.12071 2.49251 6.99229 3.97753 7.73479C5.41269 8.45238 7.45368 8.92026 9.75359 8.92026C12.0535 8.92026 14.0945 8.45238 15.5297 7.73479C17.0147 6.99229 17.6159 6.12071 17.6159 5.40578C17.6159 4.69084 17.0147 3.81926 15.5297 3.07676C14.0945 2.35916 12.0535 1.89128 9.75359 1.89128C7.45368 1.89128 5.41269 2.35916 3.97753 3.07676ZM3.23218 1.58604C4.94421 0.730026 7.25104 0.224609 9.75359 0.224609C12.2562 0.224609 14.563 0.730026 16.275 1.58604C17.9372 2.41714 19.2825 3.71946 19.2825 5.40578C19.2825 5.42646 19.2824 5.44708 19.282 5.46763C19.2824 5.47826 19.2825 5.48894 19.2825 5.49968V11.2025C19.2825 11.7321 19.1499 12.2238 18.9164 12.675C20.4449 12.129 22.2852 11.8189 24.2459 11.8189C26.7484 11.8189 29.0552 12.3243 30.7672 13.1803C32.4294 14.0114 33.7747 15.3137 33.7747 17C33.7747 17.0367 33.7742 17.0732 33.7729 17.1095C33.7742 17.1284 33.7747 17.1472 33.7747 17.1664V22.7969C33.7747 22.8344 33.774 22.8719 33.7729 22.909C33.774 22.9282 33.7747 22.9475 33.7747 22.9672V28.5944C33.7747 30.2807 32.4295 31.583 30.7674 32.414C29.0554 33.27 26.7485 33.7754 24.2459 33.7754C21.743 33.7754 19.4362 33.27 17.7242 32.414C16.062 31.583 14.7169 30.2807 14.7169 28.5944V27.2417C13.2679 27.7122 11.5683 27.9779 9.75359 27.9779C7.25086 27.9779 4.94401 27.4725 3.23201 26.6165C1.56981 25.7855 0.224609 24.4832 0.224609 22.7969V17.1664C0.224609 17.1474 0.225259 17.1284 0.226509 17.1097C0.225259 17.0734 0.224609 17.0369 0.224609 17V11.3672C0.224609 11.3483 0.225243 11.3296 0.226476 11.311C0.225243 11.275 0.224609 11.2389 0.224609 11.2025V5.49968C0.224609 5.48894 0.224826 5.47826 0.225226 5.46763C0.224809 5.44708 0.224609 5.42646 0.224609 5.40578C0.224609 3.71946 1.56998 2.41714 3.23218 1.58604ZM32.108 19.98C31.7045 20.2982 31.2492 20.5787 30.7672 20.8197C29.0552 21.6757 26.7484 22.1812 24.2459 22.1812C21.7432 22.1812 19.4364 21.6757 17.7244 20.8197C17.2424 20.5787 16.787 20.2982 16.3835 19.98V22.7969C16.3835 23.5119 16.9847 24.3834 18.4695 25.1259C19.9047 25.8434 21.9457 26.3112 24.2459 26.3112C26.5459 26.3112 28.5869 25.8434 30.022 25.1259C31.5069 24.3834 32.108 23.5119 32.108 22.7969V19.98ZM14.7187 17.1095C14.7174 17.0732 14.7169 17.0367 14.7169 17C14.7169 16.4705 14.8495 15.9789 15.083 15.5277C13.5546 16.0735 11.7142 16.3837 9.75359 16.3837C7.25086 16.3837 4.94401 15.8784 3.23201 15.0224C2.75011 14.7814 2.29484 14.5009 1.89128 14.1829V17C1.89128 17.7152 2.49248 18.5867 3.97736 19.3292C5.41246 20.0467 7.45344 20.5145 9.75359 20.5145C11.652 20.5145 13.3646 20.1945 14.7169 19.6765V17.1664C14.7169 17.1472 14.7175 17.1284 14.7187 17.1095ZM30.7674 26.6165C31.2494 26.3757 31.7045 26.095 32.108 25.777V28.5944C32.108 29.3094 31.5069 30.1809 30.022 30.9234C28.5869 31.6409 26.5459 32.1087 24.2459 32.1087C21.9457 32.1087 19.9047 31.6409 18.4695 30.9234C16.9847 30.1809 16.3835 29.3094 16.3835 28.5944V25.777C16.787 26.095 17.2424 26.3757 17.7242 26.6165C19.4362 27.4725 21.743 27.9779 24.2459 27.9779C26.7485 27.9779 29.0554 27.4725 30.7674 26.6165ZM14.7169 22.7969C14.7169 22.8344 14.7175 22.8719 14.7189 22.909C14.7175 22.9282 14.7169 22.9475 14.7169 22.9672V25.4749C13.3659 25.9922 11.6524 26.3112 9.75359 26.3112C7.45344 26.3112 5.41246 25.8434 3.97736 25.1259C2.49248 24.3834 1.89128 23.5119 1.89128 22.7969V19.9804C2.29484 20.2984 2.75011 20.579 3.23201 20.8199C4.94401 21.6759 7.25086 22.1812 9.75359 22.1812C11.5689 22.1812 13.2678 21.9145 14.7169 21.4435V22.7969ZM16.275 9.22551C16.757 8.98453 17.2124 8.70394 17.6159 8.38584V11.2025C17.6159 11.9176 17.0147 12.7892 15.5299 13.5316C14.0947 14.2492 12.0538 14.717 9.75359 14.717C7.45344 14.717 5.41246 14.2492 3.97736 13.5316C2.49248 12.7892 1.89128 11.9176 1.89128 11.2025V8.38584C2.29489 8.70394 2.75021 8.98453 3.23218 9.22551C4.94421 10.0815 7.25104 10.5869 9.75359 10.5869C12.2562 10.5869 14.563 10.0815 16.275 9.22551ZM16.3835 17C16.3835 16.285 16.9847 15.4135 18.4697 14.671C19.9049 13.9534 21.9459 13.4855 24.2459 13.4855C26.5457 13.4855 28.5867 13.9534 30.0219 14.671C31.5069 15.4135 32.108 16.285 32.108 17C32.108 17.7149 31.5069 18.5865 30.0219 19.329C28.5867 20.0467 26.5457 20.5145 24.2459 20.5145C21.9459 20.5145 19.9049 20.0467 18.4697 19.329C16.9847 18.5865 16.3835 17.7149 16.3835 17Z" fill="#6F8B90"/>
</svg>
